<?xml version="1.0" encoding="utf-8"?>
<!-- Generator: Adobe Illustrator 26.1.0, SVG Export Plug-In . SVG Version: 6.00 Build 0)  -->
<svg version="1.1" id="Layer_1" xmlns="http://www.w3.org/2000/svg" xmlns:xlink="http://www.w3.org/1999/xlink" x="0px" y="0px"
	 viewBox="0 0 76.9 29.3" style="enable-background:new 0 0 76.9 29.3;" xml:space="preserve">
<style type="text/css">
	.st0{fill:none;stroke:#FFFFFF;stroke-width:0.8;stroke-miterlimit:10;}
</style>
<g id="Layer_2_00000097468261539204931470000002664228685506903702_">
	<g id="Layer_1-2">
		<line class="st0" x1="15.4" y1="7.7" x2="61.8" y2="7.7"/>
		<line class="st0" x1="53.7" y1="4.7" x2="76.9" y2="4.7"/>
		<line class="st0" x1="0" y1="4.7" x2="23.2" y2="4.7"/>
		<path class="st0" d="M44.7,14.8H32c-2.9,0-5.3-2.4-5.3-5.3V7.7H50v1.8C50,12.4,47.6,14.7,44.7,14.8z"/>
		<line class="st0" x1="38.3" y1="14.8" x2="38.3" y2="18"/>
		<circle class="st0" cx="38.3" cy="20.1" r="2.1"/>
		<path class="st0" d="M33,20.9c0.9,2.2,3,3.6,5.3,3.6c2.4,0,4.6-1.4,5.5-3.7"/>
		<path class="st0" d="M30.9,21.6c1.2,3.1,4.2,5.1,7.5,5c3.3,0,6.4-2,7.6-5.1"/>
		<path class="st0" d="M28.9,22.6c1.5,3.8,5.2,6.4,9.3,6.4c4.2,0.1,8-2.5,9.6-6.4"/>
		<path class="st0" d="M13.2,10.4h-2.6c-1.2,0-2.2-1-2.2-2.2V4.7h7v3.5C15.4,9.4,14.4,10.3,13.2,10.4z"/>
		<path class="st0" d="M66.6,10.6H64c-1.2,0-2.2-1-2.2-2.2V4.8h7v3.5C68.8,9.6,67.8,10.5,66.6,10.6z"/>
		<path class="st0" d="M67.2,4.7h-3.7c-0.1,0-0.3-0.1-0.3-0.2c0,0,0,0,0-0.1V1.8c0-0.8,0.6-1.4,1.3-1.4c0,0,0,0,0.1,0h1.6
			c0.8,0,1.4,0.6,1.4,1.3c0,0,0,0,0,0.1v2.6C67.5,4.4,67.4,4.7,67.2,4.7z"/>
		<path class="st0" d="M13.7,4.7H10c-0.1,0-0.3-0.1-0.3-0.2c0,0,0,0,0-0.1V1.8c0-0.8,0.6-1.4,1.3-1.4c0,0,0,0,0.1,0h1.6
			c0.8,0,1.4,0.6,1.4,1.3c0,0,0,0,0,0.1v2.6C14,4.4,13.9,4.7,13.7,4.7z"/>
	</g>
</g>
</svg>
