<?xml version="1.0" encoding="utf-8"?>
<!-- Generator: Adobe Illustrator 26.1.0, SVG Export Plug-In . SVG Version: 6.00 Build 0)  -->
<svg version="1.1" id="Layer_1" xmlns="http://www.w3.org/2000/svg" xmlns:xlink="http://www.w3.org/1999/xlink" x="0px" y="0px"
	 viewBox="0 0 51.2 51.2" style="enable-background:new 0 0 51.2 51.2;" xml:space="preserve">
<style type="text/css">
	.st0{fill:none;stroke:#FFFFFF;stroke-miterlimit:10;}
	.st1{fill:none;stroke:#FFFFFF;stroke-linecap:round;stroke-linejoin:round;}
</style>
<g id="Layer_2_00000070096922504423630790000017786947634809949065_">
	<g id="Layer_1-2">
		<path class="st0" d="M46.2,50.8H5.1c-2.6,0-4.7-2.1-4.7-4.7c0,0,0,0,0,0V5.1c0-2.6,2.1-4.7,4.7-4.7c0,0,0,0,0,0h41.1
			c2.6,0,4.7,2.1,4.7,4.7c0,0,0,0,0,0v41.1C50.8,48.7,48.7,50.8,46.2,50.8z"/>
		<path class="st1" d="M32.8,25.5c-0.1,3.3-2.9,7.1-7.1,7.1c-3.9,0-7.1-3.2-7.1-7.1c0-1.9,0.7-3.6,2.1-4.9"/>
		<path class="st1" d="M37.2,25.5C37.2,31.9,32,37,25.7,37s-11.5-5.1-11.5-11.5c0-3,1.2-5.9,3.3-8.1"/>
		<path class="st1" d="M11.6,33.2c-1.2-2.4-1.9-5-1.9-7.7c0-4.3,1.7-8.4,4.7-11.4"/>
		<path class="st1" d="M41.8,25.5c0,8.9-7.3,16.1-16.2,16.1c-3.3,0-6.6-1.1-9.3-3"/>
		<path class="st1" d="M46.2,25.6c0,11.3-9.2,20.5-20.5,20.5C14.3,46.1,5.1,37,5.2,25.6c0-5.5,2.2-10.7,6.1-14.6"/>
		<circle class="st1" cx="13.8" cy="36.2" r="1.7"/>
		<line class="st1" x1="25.8" y1="25.5" x2="8.9" y2="8.6"/>
		<line class="st1" x1="25.5" y1="2.5" x2="25.5" y2="48.7"/>
		<line class="st1" x1="2.5" y1="25.5" x2="48.7" y2="25.5"/>
	</g>
</g>
</svg>
