<?xml version="1.0" encoding="utf-8"?>
<!-- Generator: Adobe Illustrator 26.1.0, SVG Export Plug-In . SVG Version: 6.00 Build 0)  -->
<svg version="1.1" id="Layer_1" xmlns="http://www.w3.org/2000/svg" xmlns:xlink="http://www.w3.org/1999/xlink" x="0px" y="0px"
	 viewBox="0 0 46.9 46.9" style="enable-background:new 0 0 46.9 46.9;" xml:space="preserve">
<style type="text/css">
	.st0{fill:none;stroke:#FFFFFF;stroke-width:0.8;stroke-miterlimit:10;}
</style>
<g id="Layer_2_00000136396527758836032500000004435314849156235452_">
	<g id="Layer_1-2">
		<circle class="st0" cx="23.5" cy="23.5" r="23.1"/>
		<circle class="st0" cx="23.5" cy="23.5" r="2.4"/>
		<circle class="st0" cx="23.5" cy="23.5" r="0.9"/>
		<path class="st0" d="M37.3,10.4c-4.1,3.5-8.3,6.9-12.4,10.4c0.4,0.1,0.9,0.2,1.5,0.4c1.3,0.5,2.5,2.2,3.1,2.2
			c0.2,0,0.2-0.1,0.3-0.2c6.9-8.7,10.3-13.1,9.5-13.7C39.2,9.2,38.7,9.4,37.3,10.4z"/>
		<path class="st0" d="M9.4,36.8c4.1-3.5,8.3-6.9,12.4-10.4c-0.4-0.1-0.9-0.2-1.5-0.4c-1.3-0.5-2.5-2.2-3.1-2.2
			c-0.2,0-0.2,0.1-0.3,0.2C10,32.7,6.6,37.1,7.4,37.7C7.7,37.8,8.1,37.8,9.4,36.8z"/>
	</g>
</g>
</svg>
