<?xml version="1.0" encoding="utf-8"?>
<!-- Generator: Adobe Illustrator 26.1.0, SVG Export Plug-In . SVG Version: 6.00 Build 0)  -->
<svg version="1.1" id="Layer_1" xmlns="http://www.w3.org/2000/svg" xmlns:xlink="http://www.w3.org/1999/xlink" x="0px" y="0px"
	 viewBox="0 0 47.8 58.7" style="enable-background:new 0 0 47.8 58.7;" xml:space="preserve">
<style type="text/css">
	.st0{fill:none;stroke:#FFFFFF;stroke-miterlimit:10;}
	.st1{stroke:#FFFFFF;stroke-miterlimit:10;}
</style>
<g id="Layer_2_00000027600470340453582570000012198525218270311611_">
	<g id="Layer_1-2">
		<path class="st0" d="M27.5,42H4.2c-2.1,0-3.8-1.7-3.8-3.8v-34c0-2.1,1.7-3.8,3.7-3.8c0,0,0,0,0.1,0h23.4c2.1,0,3.8,1.7,3.8,3.8
			v34.1c0,2-1.6,3.7-3.7,3.8C27.6,42,27.6,42,27.5,42z"/>
		<path class="st1" d="M14,37l1.1-12.9H5.8L18.2,5.4l-1.1,12.8h8.7L14,37z M7.4,23.3h8.5L15,33.8l9.5-15h-8.1l0.1-0.9l0.8-9.7
			L7.4,23.3z"/>
		<path class="st0" d="M43.8,44.3c0,7.7-6.3,14-14,14s-14-6.3-14-14"/>
		<line class="st0" x1="43.8" y1="44.3" x2="43.8" y2="15.9"/>
		<path class="st0" d="M46.7,10.2c0,3.1-0.6,5.5-2.9,5.5S41,13.2,41,10.2"/>
		<line class="st0" x1="39.8" y1="10.2" x2="47.8" y2="10.2"/>
		<line class="st0" x1="42.2" y1="9.9" x2="42.2" y2="5.8"/>
		<line class="st0" x1="45.5" y1="9.9" x2="45.5" y2="5.8"/>
		<path class="st0" d="M17.6,41.8c0,1.9-0.9,3.4-1.9,3.4s-1.9-1.5-1.9-3.4"/>
	</g>
</g>
</svg>
