<?xml version="1.0" encoding="utf-8"?>
<!-- Generator: Adobe Illustrator 26.1.0, SVG Export Plug-In . SVG Version: 6.00 Build 0)  -->
<svg version="1.1" id="Layer_1" xmlns="http://www.w3.org/2000/svg" xmlns:xlink="http://www.w3.org/1999/xlink" x="0px" y="0px"
	 viewBox="0 0 33.1 53.8" style="enable-background:new 0 0 33.1 53.8;" xml:space="preserve">
<style type="text/css">
	.st0{fill:none;stroke:#FFFFFF;stroke-miterlimit:10;}
	.st1{fill:none;stroke:#FFFFFF;stroke-linecap:round;stroke-miterlimit:10;}
</style>
<g id="Layer_2_00000064336001535280095300000011292498736829638065_">
	<g id="Layer_1-2">
		<line class="st0" x1="16.5" y1="20.6" x2="16.5" y2="43.8"/>
		<circle class="st0" cx="16.5" cy="16.6" r="3.9"/>
		<path class="st0" d="M12.9,47.8c0-2.1,1.6-3.8,3.7-3.8c2,0,3.7,1.7,3.7,3.7c0,0,0,0.1,0,0.1"/>
		<path class="st0" d="M26.8,53.5H6.2v-5.2c0-0.3,0.2-0.5,0.4-0.5c0,0,0,0,0.1,0h19.5c0.3,0,0.5,0.2,0.5,0.4c0,0,0,0,0,0.1
			L26.8,53.5z"/>
		<path class="st1" d="M13.2,24.1c-3-1.3-5-4.3-5-7.6c0-4.6,3.8-8.3,8.4-8.2s8.3,3.8,8.2,8.4c0,3.2-1.9,6.2-4.8,7.5"/>
		<path class="st1" d="M13.2,28.1C6.9,26.3,3.2,19.7,5,13.3s8.5-10.1,14.8-8.2c5.1,1.5,8.7,6.1,8.7,11.5c0,5.4-3.6,10.1-8.7,11.6"/>
		<path class="st1" d="M13.2,32.5C4.5,30.6-1.2,22.1,0.6,13.3S11-1.1,19.8,0.7c7.6,1.6,13,8.2,12.9,16c0,7.7-5.4,14.3-12.9,15.9"/>
	</g>
</g>
</svg>
