<?xml version="1.0" encoding="utf-8"?>
<!-- Generator: Adobe Illustrator 26.1.0, SVG Export Plug-In . SVG Version: 6.00 Build 0)  -->
<svg version="1.1" id="Layer_1" xmlns="http://www.w3.org/2000/svg" xmlns:xlink="http://www.w3.org/1999/xlink" x="0px" y="0px"
	 viewBox="0 0 36.3 25" style="enable-background:new 0 0 36.3 25;" xml:space="preserve">
<style type="text/css">
	.st0{fill:none;stroke:#4EAACE;stroke-miterlimit:10;}
	.st1{fill:none;stroke:#4EAACE;stroke-linecap:round;stroke-miterlimit:10;}
</style>
<g id="Layer_2_00000173879618817112485660000018040360213706510012_">
	<g id="Layer_1-2">
		<path class="st0" d="M34.4,24.3H1.9c-0.6,0-1.1-0.5-1.1-1.1V1.7c0-0.6,0.5-1.1,1.1-1.1h32.6c0.6,0,1.1,0.5,1.1,1.1v21.5
			C35.5,23.8,35,24.3,34.4,24.3z"/>
		<path class="st0" d="M7.5,21.7H3.7c-0.1,0-0.2-0.1-0.2-0.2v-4.2"/>
		<path class="st0" d="M32.8,17.1v4.4c0,0.1-0.1,0.2-0.2,0.2h-4.2"/>
		<path class="st0" d="M28.4,3.3h4.2c0.1,0,0.2,0.1,0.2,0.2V8"/>
		<path class="st0" d="M3.4,8.2V3.5c0-0.1,0.1-0.2,0.2-0.2h4.2"/>
		<line class="st1" x1="17.6" y1="9.4" x2="17.6" y2="15.6"/>
		<line class="st1" x1="14.5" y1="12.5" x2="20.7" y2="12.5"/>
		<circle class="st1" cx="6.3" cy="5.9" r="1.3"/>
		<line class="st1" x1="8.8" y1="5.2" x2="13.4" y2="5.2"/>
		<line class="st1" x1="8.9" y1="6.7" x2="10.7" y2="6.7"/>
		<line class="st1" x1="29.5" y1="19.8" x2="30.7" y2="19.8"/>
		<line class="st1" x1="25" y1="19.8" x2="27.7" y2="19.8"/>
	</g>
</g>
</svg>
