<?xml version="1.0" encoding="utf-8"?>
<!-- Generator: Adobe Illustrator 26.1.0, SVG Export Plug-In . SVG Version: 6.00 Build 0)  -->
<svg version="1.1" id="Layer_1" xmlns="http://www.w3.org/2000/svg" xmlns:xlink="http://www.w3.org/1999/xlink" x="0px" y="0px"
	 viewBox="0 0 40.1 40.7" style="enable-background:new 0 0 40.1 40.7;" xml:space="preserve">
<style type="text/css">
	.st0{fill:none;stroke:#4EAACE;stroke-linecap:round;stroke-miterlimit:10;}
	.st1{fill:none;stroke:#4EAACE;stroke-miterlimit:10;}
</style>
<g id="Layer_2_00000023983543325375448550000010767622131816588720_">
	<g id="Layer_1-2">
		<path class="st0" d="M23,30.7h-5.9c-1,0-1.9-0.7-2-1.7c-0.3-4.7-0.6-9.5-0.9-14.2c-0.1-2.7,2.1-5,4.8-5c0.1,0,0.2,0,0.3,0h1.1
			c2.7-0.1,5,2,5.1,4.7c0,0.1,0,0.2,0,0.3c-0.2,4.8-0.5,9.5-0.7,14.3c0,0.9-0.8,1.6-1.7,1.6C23.1,30.7,23,30.7,23,30.7z"/>
		<path class="st0" d="M31.3,32.3c-2.1-1.6-4.2-3.1-6.3-4.7"/>
		<path class="st0" d="M23.8,30.5c2.4,1.4,4.9,2.8,7.3,4.2"/>
		<path class="st0" d="M8.8,32.2c2.1-1.6,4.2-3.1,6.3-4.7"/>
		<path class="st0" d="M16.3,30.5c-2.4,1.4-4.9,2.8-7.3,4.2"/>
		<path class="st0" d="M33.1,8.4c-2.5,1.9-4.9,3.8-7.4,5.7"/>
		<path class="st0" d="M24.4,11.1c2.1-1.3,4.3-2.5,6.4-3.8"/>
		<path class="st0" d="M6.9,8.4c2.5,1.9,4.9,3.8,7.4,5.7"/>
		<path class="st0" d="M15.5,11.1c-2.1-1.2-4.2-2.4-6.2-3.7"/>
		<ellipse class="st1" cx="32.4" cy="7" rx="1.6" ry="1.5"/>
		<ellipse class="st1" cx="7.6" cy="7" rx="1.6" ry="1.5"/>
		<ellipse class="st1" cx="7.9" cy="33.6" rx="1.6" ry="1.5"/>
		<ellipse class="st1" cx="32.3" cy="33.6" rx="1.6" ry="1.5"/>
		<line class="st0" x1="16.9" y1="15.2" x2="17.3" y2="30.7"/>
		<line class="st0" x1="16.7" y1="10.4" x2="16.8" y2="13.1"/>
		<line class="st0" x1="20" y1="26.6" x2="20" y2="29.4"/>
		<circle class="st0" cx="7.6" cy="7" r="0.3"/>
		<line class="st0" x1="9.2" y1="34.7" x2="15.1" y2="40.3"/>
		<line class="st0" x1="0.7" y1="26.9" x2="6.7" y2="32.5"/>
		<line class="st0" x1="33.6" y1="8" x2="39.7" y2="13.7"/>
		<line class="st0" x1="25.3" y1="0.4" x2="31.2" y2="5.8"/>
		<line class="st0" x1="31.1" y1="34.7" x2="25.1" y2="40.3"/>
		<line class="st0" x1="39.4" y1="26.9" x2="33.4" y2="32.5"/>
		<line class="st0" x1="6.4" y1="8.1" x2="0.4" y2="13.7"/>
		<line class="st0" x1="14.8" y1="0.4" x2="8.8" y2="6"/>
		<line class="st0" x1="23" y1="15.1" x2="22.5" y2="30.6"/>
		<line class="st0" x1="23.2" y1="10.3" x2="23.1" y2="13"/>
		<circle class="st0" cx="32.4" cy="7" r="0.3"/>
		<circle class="st0" cx="7.9" cy="33.6" r="0.3"/>
		<circle class="st0" cx="32.3" cy="33.6" r="0.3"/>
	</g>
</g>
</svg>
