<?xml version="1.0" encoding="utf-8"?>
<!-- Generator: Adobe Illustrator 26.1.0, SVG Export Plug-In . SVG Version: 6.00 Build 0)  -->
<svg version="1.1" id="Layer_1" xmlns="http://www.w3.org/2000/svg" xmlns:xlink="http://www.w3.org/1999/xlink" x="0px" y="0px"
	 viewBox="0 0 31.2 35.1" style="enable-background:new 0 0 31.2 35.1;" xml:space="preserve">
<style type="text/css">
	.st0{fill:none;stroke:#4EAACE;stroke-miterlimit:10;}
</style>
<path class="st0" d="M4.4,31V17.3h5.3"/>
<path class="st0" d="M21.5,17.3h5.3V31"/>
<circle class="st0" cx="15.6" cy="24.2" r="9.1"/>
<circle class="st0" cx="15.6" cy="24.2" r="7.1"/>
<line class="st0" x1="27.2" y1="31" x2="21.8" y2="31"/>
<line class="st0" x1="4" y1="31" x2="9.6" y2="31"/>
<path class="st0" d="M27.8,26.2L27.8,26.2c-0.6,0-1-0.4-1-1v-2.8c0-0.6,0.4-1,1-1l0,0c0.6,0,1,0.4,1,1v2.7c0.1,0.5-0.3,1-0.9,1.1
	C27.9,26.2,27.8,26.2,27.8,26.2z"/>
<path class="st0" d="M3.4,26.2L3.4,26.2c-0.6,0-1-0.4-1-1v-2.8c0-0.6,0.4-1,1-1l0,0c0.6,0,1,0.4,1,1l0,0v2.7
	C4.4,25.7,4,26.1,3.4,26.2z"/>
<polyline class="st0" points="12.6,15.3 11.2,10.7 20,10.7 18.7,15.4 "/>
<path class="st0" d="M19,10.7h-6.7c-1.3,0-2.4-1.1-2.4-2.4h11.4C21.3,9.6,20.3,10.6,19,10.7L19,10.7z"/>
<path class="st0" d="M20.8,8.3H10.6c-1.6,0-2.9-0.9-3-2.1l0,0c0-1.1,1.3-2.1,3-2.1h10.2c1.6,0,2.9,0.9,3,2.1l0,0
	C23.8,7.3,22.5,8.3,20.8,8.3C20.9,8.3,20.8,8.3,20.8,8.3z"/>
</svg>
