<?xml version="1.0" encoding="utf-8"?>
<!-- Generator: Adobe Illustrator 26.1.0, SVG Export Plug-In . SVG Version: 6.00 Build 0)  -->
<svg version="1.1" id="Layer_1" xmlns="http://www.w3.org/2000/svg" xmlns:xlink="http://www.w3.org/1999/xlink" x="0px" y="0px"
	 viewBox="0 0 42.4 23.8" style="enable-background:new 0 0 42.4 23.8;" xml:space="preserve">
<style type="text/css">
	.st0{fill:none;stroke:#4EAACE;stroke-width:1.5;stroke-miterlimit:10;}
</style>
<g>
	<g>
		<path class="st0" d="M21.2,11.6h-8.1c-0.7,0-1.3-0.3-1.6-0.9c-0.2-0.4-0.3-0.7-0.5-1.1C10.7,9,10.1,8.7,9.4,8.7H3.3
			C2.6,8.8,1.9,8.3,1.7,7.6C1.5,7.1,1.3,6.6,1.2,6C1,5.2,1.5,4.4,2.3,4.2c0.2,0,0.3-0.1,0.5,0h5.3c0.7,0,1.3-0.3,1.6-0.9
			C9.8,3,9.9,2.7,10.1,2.5c0.1-0.3,0.2-0.5,0.4-0.7c0.3-0.6,0.9-0.9,1.6-0.9h18.6c0.7,0,1.3,0.3,1.6,0.9c0.1,0.3,0.2,0.5,0.4,0.7
			c0.1,0.3,0.2,0.5,0.4,0.7c0.3,0.6,0.9,0.9,1.6,0.9H40c1.1,0,2,1,1.6,1.9c-0.2,0.5-0.4,1.1-0.5,1.6c-0.3,0.7-0.9,1.1-1.6,1.1h-6.1
			c-0.7,0-1.3,0.3-1.6,0.9c-0.2,0.4-0.3,0.7-0.5,1.1c-0.3,0.6-0.9,0.9-1.6,0.9L21.2,11.6"/>
	</g>
	<path class="st0" d="M5.5,1.9v2.2H3.1V1.9c0-0.6,0.5-1.2,1.1-1.2h0.1c0.3,0,0.6,0.1,0.8,0.3C5.3,1.3,5.5,1.6,5.5,1.9z"/>
	<path class="st0" d="M39.4,1.9v2.2h-2.3V1.9c0-0.6,0.5-1.2,1.1-1.2h0.1c0.3,0,0.6,0.1,0.8,0.3C39.3,1.3,39.4,1.6,39.4,1.9z"/>
	<line class="st0" x1="36.9" y1="2" x2="33.9" y2="2"/>
	<line class="st0" x1="42.4" y1="2" x2="39.4" y2="2"/>
	<line class="st0" x1="3" y1="2" x2="0" y2="2"/>
	<line class="st0" x1="8.5" y1="2" x2="5.5" y2="2"/>
	<path class="st0" d="M38.9,13.7c-0.1,2.9-0.2,5.8-0.2,8.7c0,0.8-0.7,0.9-0.9,0.2c-1.3-4.6-2.6-9.2-3.9-13.9h5.2
		c0,0.8,0,1.5-0.1,2.3"/>
	<path class="st0" d="M23.4,21.7h-4.6c-0.7,0-1.3-0.6-1.3-1.3v-4.6c0-0.7,0.6-1.3,1.3-1.3h4.6c0.7,0,1.3,0.6,1.3,1.3v4.6
		C24.7,21.1,24.1,21.7,23.4,21.7z"/>
	<polygon class="st0" points="23.2,14.5 19.1,14.5 18.6,11.8 23.7,11.8 	"/>
	<circle class="st0" cx="21.2" cy="18.1" r="1.6"/>
	<line class="st0" x1="10.2" y1="4.5" x2="11.9" y2="8"/>
	<line class="st0" x1="12" y1="4.5" x2="13.6" y2="8"/>
	<line class="st0" x1="32" y1="4.5" x2="30.4" y2="8"/>
	<line class="st0" x1="30.2" y1="4.5" x2="28.6" y2="8"/>
	<path class="st0" d="M3.4,11.1c0-0.8,0-1.5-0.1-2.3h5.2C7.2,13.4,5.9,18,4.6,22.7c-0.2,0.7-0.9,0.5-0.9-0.2
		c-0.1-2.9-0.2-5.8-0.2-8.7"/>
</g>
</svg>
