<?xml version="1.0" encoding="utf-8"?>
<!-- Svg Vector Icons : http://www.onlinewebfonts.com/icon -->
<!DOCTYPE svg PUBLIC "-//W3C//DTD SVG 1.1//EN" "http://www.w3.org/Graphics/SVG/1.1/DTD/svg11.dtd">
<svg version="1.1" xmlns="http://www.w3.org/2000/svg" xmlns:xlink="http://www.w3.org/1999/xlink" x="0px" y="0px" viewBox="0 0 1000 1000" enable-background="new 0 0 1000 1000" xml:space="preserve" style="fill:rgb(94, 203, 254)">
<metadata> Svg Vector Icons : http://www.onlinewebfonts.com/icon </metadata>
<g><path  d="M615.5,47.8h-250c-65.6,0-148,9.5-217.3,65.3C96.1,157,70.6,217.6,70.6,272.2c0,92.6,72.9,186.3,201.5,186.3c12.2,0,25.5-1.2,38.9-2.4c-6.1,14.3-12.1,26.1-12.1,46.3c0,36.8,19.4,59.3,36.4,80.7c-54.6,3.6-156.6,9.5-231.8,54.6C31.8,679.3,10,739.7,10,782.5c0,87.8,84.9,169.7,260.9,169.7c208.8,0,319.2-112.7,319.2-224.3c0-81.9-48.5-122.3-101.9-166.2l-43.7-33.2c-13.3-10.7-31.5-24.9-31.5-51c0-26.1,18.2-42.7,34-58.1c51-39.2,101.9-80.7,101.9-168.6c0-90.2-58.3-137.6-86.2-160.2h75.2L615.5,47.8z M508.8,774.2c0,73.6-61.9,128.1-178.4,128.1c-129.9,0-213.7-60.5-213.7-144.8c0-84.3,77.7-112.7,104.4-122.2c51-16.6,116.5-19.1,127.5-19.1c12.1,0,18.2,0,27.9,1.2C468.8,681.6,508.8,713.6,508.8,774.2z M411.7,392c-19.5,18.9-52.3,33.2-82.6,33.2c-104.4,0-151.8-131.8-151.8-211.3c0-30.9,6.1-62.9,26.7-87.8c19.4-23.8,53.4-39.2,84.9-39.2C389.8,87,442,219.9,442,305.4C442,326.7,439.6,364.7,411.7,392z M868.9,211.9V88.8h-81v123.1H665.6v82h122.4v120.6h81V293.9H990v-82H868.9z"/></g>
</svg>