<svg id="Layer_1" data-name="Layer 1" xmlns="http://www.w3.org/2000/svg" viewBox="0 0 580 580"><defs><style>.cls-1{fill:none;stroke:#878787;stroke-miterlimit:10;stroke-width:12px;}</style></defs><circle class="cls-1" cx="290" cy="290" r="284"/><circle class="cls-1" cx="290" cy="290" r="239.2"/><path class="cls-1" d="M332.4,265.2c10,18,8.6,45.1-9.9,61.4s-51,16.5-69.3-4.1a49.1,49.1,0,0,1,4.1-69.3c14.8-13.2,36.5-15.5,53.3-7.9"/><circle class="cls-1" cx="290" cy="290" r="29.8"/><line class="cls-1" x1="290" y1="6" x2="289.9" y2="28.3"/><line class="cls-1" x1="290" y1="574" x2="289.9" y2="555.5"/><path class="cls-1" d="M290,487.6A197.6,197.6,0,0,1,102.9,353.7"/><path class="cls-1" d="M395.3,122.7A197.5,197.5,0,0,1,487.7,290"/><path class="cls-1" d="M293.6,88.9a123.1,123.1,0,0,1,73.3,18.2"/></svg>