<?xml version="1.0" encoding="utf-8"?>
<!-- Generator: Adobe Illustrator 26.1.0, SVG Export Plug-In . SVG Version: 6.00 Build 0)  -->
<svg version="1.1" id="Layer_1" xmlns="http://www.w3.org/2000/svg" xmlns:xlink="http://www.w3.org/1999/xlink" x="0px" y="0px"
	 viewBox="0 0 612 792" style="enable-background:new 0 0 612 792;" xml:space="preserve">
<style type="text/css">
	.st0{fill:none;stroke:#989897;stroke-width:16;stroke-miterlimit:10;}
</style>
<g>
	<circle class="st0" cx="307.5" cy="377.5" r="287"/>
	<path class="st0" d="M288.2,333.5l-164.8-95.2c-13.6-7.9-31.1-3.2-38.9,10.4l0,0c-7.9,13.6-3.2,31.1,10.4,38.9l164.7,95.1"/>
	<path class="st0" d="M326.4,421.3l165.2,95.4c13.6,7.9,31.1,3.2,38.9-10.4v0c7.9-13.6,3.2-31.1-10.4-38.9l-164.5-95"/>
	<path class="st0" d="M263.5,396.8l-95.2,164.8c-7.9,13.6-3.2,31.1,10.4,38.9h0c13.6,7.9,31.1,3.2,38.9-10.4l95.1-164.7"/>
	<path class="st0" d="M351.3,358.6l95.4-165.2c7.9-13.6,3.2-31.1-10.4-38.9l0,0c-13.6-7.9-31.1-3.2-38.9,10.4l-95,164.5"/>
	<circle class="st0" cx="307.5" cy="377.5" r="46.7"/>
	<circle class="st0" cx="306.7" cy="376.7" r="4.5"/>
	<line class="st0" x1="331.3" y1="424.2" x2="531.5" y2="479.7"/>
	<line class="st0" x1="88.6" y1="280.9" x2="288.8" y2="336.4"/>
	<line class="st0" x1="211.4" y1="598.8" x2="266.4" y2="400.5"/>
	<line class="st0" x1="352.2" y1="349" x2="405.7" y2="155.8"/>
</g>
</svg>
