<?xml version="1.0" encoding="utf-8"?>
<!-- Generator: Adobe Illustrator 26.1.0, SVG Export Plug-In . SVG Version: 6.00 Build 0)  -->
<svg version="1.1" id="Layer_1" xmlns="http://www.w3.org/2000/svg" xmlns:xlink="http://www.w3.org/1999/xlink" x="0px" y="0px"
	 viewBox="0 0 602 542" style="enable-background:new 0 0 602 542;" xml:space="preserve">
<style type="text/css">
	.st0{fill:none;stroke:#989897;stroke-width:16;stroke-miterlimit:10;}
</style>
<g>
	<line class="st0" x1="98" y1="127" x2="504" y2="127"/>
	<path class="st0" d="M373,201H239.9c-6.2-0.7-20.9-3.3-35.1-14.5c-14.9-11.8-20.7-26.3-22.7-32.2c-2.7-8.8-5.5-17.5-8.2-26.3
		c87.6,0,175.2,0,262.8,0c-1.2,6.4-3.4,15.5-8.2,25.7c-3.9,8.4-10.5,22.1-25.1,33.3C392.7,195.2,381.5,199.1,373,201z"/>
	<path class="st0" d="M79,155L79,155c-14.4,0-26-11.6-26-26v-26h52v26C105,143.4,93.4,155,79,155z"/>
	<path class="st0" d="M524,155L524,155c-14.4,0-26-11.6-26-26v-26h52v26C550,143.4,538.4,155,524,155z"/>
	<path class="st0" d="M92,103H66V90c0-7.2,5.8-13,13-13l0,0c7.2,0,13,5.8,13,13V103z"/>
	<path class="st0" d="M537,103h-26V90c0-7.2,5.8-13,13-13l0,0c7.2,0,13,5.8,13,13V103z"/>
	<line class="st0" x1="10" y1="103" x2="149" y2="103"/>
	<line class="st0" x1="455" y1="103" x2="594" y2="103"/>
	<path class="st0" d="M357.1,337l-53.9,89.2l-54-89.2h29.7c2.7-39.3,5.3-78.7,8-118h31.7c2.9,39.3,5.8,78.7,8.7,118H357.1z"/>
	<path class="st0" d="M334.8,422.9c58.7,3.3,102.5,16.4,102.5,32c0,18.1-59.1,32.9-132.1,32.9s-132.1-14.7-132.1-32.9
		c0-15.2,41.4-27.9,97.6-31.7"/>
</g>
</svg>
