<?xml version="1.0" encoding="utf-8"?>
<!-- Generator: Adobe Illustrator 26.1.0, SVG Export Plug-In . SVG Version: 6.00 Build 0)  -->
<svg version="1.1" id="Layer_1" xmlns="http://www.w3.org/2000/svg" xmlns:xlink="http://www.w3.org/1999/xlink" x="0px" y="0px"
	 viewBox="0 0 612 792" style="enable-background:new 0 0 612 792;" xml:space="preserve">
<style type="text/css">
	.st0{fill:none;stroke:#949494;stroke-width:4;stroke-miterlimit:10;}
	.st1{fill:none;stroke:#949494;stroke-width:16;stroke-miterlimit:10;}
	.st2{fill:none;stroke:#949494;stroke-width:16;stroke-miterlimit:10;stroke-dasharray:19.812,19.812;}
</style>
<path class="st0" d="M694.2,463"/>
<g>
	<path class="st1" d="M202.9,500.7C139.2,531.8,75.4,563,11.7,594.1V195.9c64.2-23,128.4-46,192.6-69
		C203.8,251.5,203.4,376.1,202.9,500.7z"/>
	<path class="st1" d="M202.9,500.7c66.6,31.2,133.2,62.3,199.8,93.4V195.9c-66.1-23-132.3-46-198.4-69
		C203.8,251.5,203.4,376.1,202.9,500.7z"/>
	<path class="st1" d="M604,512.9c-67.1,27.1-134.2,54.2-201.2,81.2c0-132.7,0-265.5,0-398.2c67.7-28,135.4-55.9,203.1-83.9
		C605.2,245.6,604.6,379.3,604,512.9z"/>
	<path class="st1" d="M240.4,647"/>
	<path class="st1" d="M225,628.3"/>
	<g>
		<g>
			<path class="st1" d="M83.6,467.2c-1-4.8-1.7-9.6-1.9-14.2"/>
			<path class="st2" d="M85,424.8c4-12.8,11.4-23.5,21.7-30c23.8-15.2,54.8-2.9,62.2,0c15,5.9,18.4,12.3,41.7,27.2
				c17.4,11.2,32.6,18.5,42.6,23c20.4,6.5,79.4,22.2,149.6,0c70.1-22.2,109.2-69,122.2-86c11-19.3,24.5-49.3,29-87.8
				c0.6-5.1,1-10.1,1.2-14.9"/>
			<path class="st1" d="M555.4,242.2c-0.1-5-0.3-9.8-0.6-14.4"/>
		</g>
	</g>
	<line class="st1" x1="83.6" y1="310" x2="140.7" y2="365.8"/>
	<line class="st1" x1="137.1" y1="309.4" x2="86" y2="371.1"/>
</g>
</svg>
