<?xml version="1.0" encoding="utf-8"?>
<!-- Generator: Adobe Illustrator 26.1.0, SVG Export Plug-In . SVG Version: 6.00 Build 0)  -->
<svg version="1.1" id="Layer_1" xmlns="http://www.w3.org/2000/svg" xmlns:xlink="http://www.w3.org/1999/xlink" x="0px" y="0px"
	 viewBox="0 0 612 792" style="enable-background:new 0 0 612 792;" xml:space="preserve">
<style type="text/css">
	.st0{fill:none;stroke:#949494;stroke-width:12;stroke-miterlimit:10;}
	.st1{fill:none;stroke:#949494;stroke-width:12;stroke-miterlimit:10;stroke-dasharray:9.7136,9.7136;}
</style>
<g>
	<line class="st0" x1="122.7" y1="220.6" x2="487.7" y2="219"/>
	<path class="st0" d="M122.7,204.3V227c0,15.2-12.3,27.5-27.5,27.5l0,0c-15.2,0-27.5-12.3-27.5-27.5v-22.7"/>
	<path class="st0" d="M544.8,204.3V227c0,15.2-12.3,27.5-27.5,27.5l0,0c-15.2,0-27.5-12.3-27.5-27.5v-22.7"/>
	<path class="st0" d="M71.8,204.3V186c0-12.1,9.8-22,22-22h0.9c12.1,0,22,9.8,22,22v18.3"/>
	<line class="st0" x1="6.5" y1="204.3" x2="181.9" y2="204.3"/>
	<line class="st0" x1="428.6" y1="204.3" x2="606" y2="204.3"/>
	<path class="st0" d="M495.9,204.3V186c0-12.1,9.8-22,22-22h0.9c12.1,0,22,9.8,22,22v18.3"/>
	<path class="st0" d="M373.4,294H237.1c-30.5,0-55.2-24.7-55.2-55.2v-18.2h246.7v18.2C428.6,269.3,403.9,294,373.4,294z"/>
	<rect x="271.6" y="294" class="st0" width="75.4" height="38.7"/>
	<path class="st0" d="M391.2,385.7c-55.6,0.1-111.2,0.2-166.8,0.3c1.4-9.3,2.8-18.5,4.2-27.8c0.2-2.1,1.4-11.3,9.3-18.3
		c7-6.2,14.8-7,17.2-7.1h106.3c4.1,0.3,11.7,1.4,17.2,7.1c3.5,3.6,4.9,7.5,7.1,17.2C387.5,364.5,389.5,374.2,391.2,385.7z"/>
	<g>
		<g>
			<line class="st0" x1="232.2" y1="383.2" x2="229.4" y2="393"/>
			<line class="st1" x1="223.9" y1="412" x2="193.6" y2="516.7"/>
			<line class="st0" x1="190.8" y1="526.2" x2="188" y2="536"/>
		</g>
	</g>
	<g>
		<g>
			<line class="st0" x1="257.1" y1="386" x2="255.5" y2="396.1"/>
			<line class="st1" x1="252.3" y1="415.7" x2="234.9" y2="523.2"/>
			<line class="st0" x1="233.4" y1="533" x2="231.7" y2="543"/>
		</g>
	</g>
	<g>
		<g>
			<line class="st0" x1="282.3" y1="386" x2="281.8" y2="396.2"/>
			<line class="st1" x1="281" y1="416" x2="276.3" y2="524.9"/>
			<line class="st0" x1="275.8" y1="534.7" x2="275.4" y2="544.9"/>
		</g>
	</g>
	<g>
		<g>
			<line class="st0" x1="307.8" y1="385.9" x2="307.8" y2="396.1"/>
			<line class="st1" x1="307.8" y1="416" x2="307.8" y2="524.9"/>
			<line class="st0" x1="307.8" y1="534.8" x2="307.8" y2="545"/>
		</g>
	</g>
	<g>
		<g>
			<line class="st0" x1="358.9" y1="386" x2="360.6" y2="396.1"/>
			<line class="st1" x1="363.7" y1="415.7" x2="381.1" y2="523.2"/>
			<line class="st0" x1="382.7" y1="533" x2="384.3" y2="543"/>
		</g>
	</g>
	<g>
		<g>
			<line class="st0" x1="333.7" y1="386" x2="334.2" y2="396.2"/>
			<line class="st1" x1="335" y1="416" x2="339.7" y2="524.9"/>
			<line class="st0" x1="340.2" y1="534.7" x2="340.6" y2="544.9"/>
		</g>
	</g>
	<g>
		<g>
			<line class="st0" x1="386.1" y1="393" x2="383.3" y2="383.2"/>
			<line class="st1" x1="422" y1="516.7" x2="391.6" y2="412"/>
			<line class="st0" x1="427.5" y1="536" x2="424.7" y2="526.2"/>
		</g>
	</g>
</g>
</svg>
