<?xml version="1.0" encoding="utf-8"?>
<!-- Generator: Adobe Illustrator 26.1.0, SVG Export Plug-In . SVG Version: 6.00 Build 0)  -->
<svg version="1.1" id="Layer_1" xmlns="http://www.w3.org/2000/svg" xmlns:xlink="http://www.w3.org/1999/xlink" x="0px" y="0px"
	 viewBox="0 0 599.3 505" style="enable-background:new 0 0 599.3 505;" xml:space="preserve">
<style type="text/css">
	.st0{fill:none;stroke:#969695;stroke-width:16;stroke-miterlimit:10;}
</style>
<path class="st0" d="M539.5,489h-476c-23,0-41.7-18.7-41.7-41.7V60.8c0-23,18.7-41.7,41.7-41.7c0,0,0,0,0,0h476
	c23,0.1,41.6,18.7,41.7,41.7v386.5C581.4,470.2,562.6,489,539.5,489z"/>
<path class="st0" d="M261.7,220.1l-108-92.7c-6.8-5.9-16.9-5.9-23.6,0l-108,92.7"/>
<path class="st0" d="M581.4,237L457.6,132.2c-6.7-5.7-16.5-5.7-23.2,0L310.7,237"/>
<line class="st0" x1="514.1" y1="174.5" x2="580.9" y2="139.8"/>
<line class="st0" x1="229.2" y1="194.2" x2="365.4" y2="192.9"/>
<path class="st0" d="M295.8,193.5c-7.1,26.6-18.3,43.1-27.7,53.3c-8,8.9-16.4,15.1-14.6,19.3s17.2,0.4,41.7,1.5
	c18.8,0.8,48.7,4.8,49.8,13.3c0.8,5.8-12.1,11.7-22.4,16.2c-40.1,18.3-68.6,12.6-75.5,28.4c-2.1,4.7-2.4,11.3,0.7,16.3
	c9.1,15.6,43.2,5,107.4,6.8c31.3,0.9,51,1.6,54,10.1c3.6,11.2-23,31.8-45.8,42.8c-29.2,14-40.1,6.4-73.7,19.2
	c-19.3,7.4-59.7,26.6-57.4,43.6c2.3,17,46.9,23.5,53.5,24.7"/>
<circle class="st0" cx="107.7" cy="70.6" r="22.2"/>
</svg>
