<svg id="Layer_1" data-name="Layer 1" xmlns="http://www.w3.org/2000/svg" viewBox="0 0 603.2 418.5"><defs><style>.cls-1{fill:none;stroke:#989897;stroke-miterlimit:10;stroke-width:12px;}</style></defs><path class="cls-1" d="M449.5,373.4H153.7V333.2"/><path class="cls-1" d="M153.7,225.7V63.2H449.5V231.8"/><path class="cls-1" d="M449.5,230.1V63.2L595.2,8.6q1,201.1,1.9,402.1L449.5,373.4V333.3"/><path class="cls-1" d="M153.7,333.8v39.6L6,410.7Q7.1,209.7,8,8.6L153.7,63.2V232.3"/><polygon class="cls-1" points="301.6 212.1 230.7 334.8 372.4 334.8 301.6 212.1"/><polygon class="cls-1" points="164.5 212.1 93.7 334.8 235.3 334.8 164.5 212.1"/><polygon class="cls-1" points="438.4 212.1 367.6 334.8 509.3 334.8 438.4 212.1"/><circle class="cls-1" cx="235.7" cy="156.8" r="33.8" transform="translate(62.6 380.8) rotate(-85.9)"/><path class="cls-1" d="M419.3,162.9a8.7,8.7,0,0,1-3.2,6,9.5,9.5,0,0,1-8,1.7,9.8,9.8,0,0,1-2.2,3.3,10.9,10.9,0,0,1-2.5,1.8,4.1,4.1,0,0,1-.2,2.1c-1.3,5.1-9.5,7.5-14.8,7.5a23.4,23.4,0,0,1-10.2-2.1l-4.6.2a76.6,76.6,0,0,1-9.8-.7,62.5,62.5,0,0,1-11.1,2.6c-6.9,1-8.6.1-9.3-.4a8.7,8.7,0,0,1-4.1-7.9,7.7,7.7,0,0,1,1.4-3.5,6.7,6.7,0,0,1-3.7-3.9,6.1,6.1,0,0,1,.3-3.9c-4.9-.1-8.1-3.9-7.8-6.8s4.4-6.3,9.3-5.1a9.8,9.8,0,0,1,3.3-6.2,8.9,8.9,0,0,1,4.2-1.7,6.7,6.7,0,0,1,.8-3c1.6-3.5,5-4.8,6.3-5.4,7.3-2.8,15.4,2.8,16.1,3.3a6.4,6.4,0,0,1,4-1.9,6.5,6.5,0,0,1,5.5,1.8c.6-.8,5-6.9,12.2-6.9,5.4.1,12,3.7,12,7.9a5.5,5.5,0,0,1-1.5,3.8,10.5,10.5,0,0,1,7.3,2.7,9.3,9.3,0,0,1,2.8,5.5C416.5,155.1,419.5,159,419.3,162.9Z"/></svg>