<?xml version="1.0" encoding="utf-8"?>
<!-- Generator: Adobe Illustrator 26.1.0, SVG Export Plug-In . SVG Version: 6.00 Build 0)  -->
<svg version="1.1" id="Layer_1" xmlns="http://www.w3.org/2000/svg" xmlns:xlink="http://www.w3.org/1999/xlink" x="0px" y="0px"
	 viewBox="0 0 469.3 473.3" style="enable-background:new 0 0 469.3 473.3;" xml:space="preserve">
<style type="text/css">
	.st0{fill:none;stroke:#989897;stroke-width:16;stroke-miterlimit:10;}
	.st1{fill:none;stroke:#989897;stroke-width:16;stroke-miterlimit:10;stroke-dasharray:16.83,16.83;}
	.st2{fill:none;stroke:#989897;stroke-width:16;stroke-miterlimit:10;stroke-dasharray:18.85,18.85;}
	.st3{fill:none;stroke:#989897;stroke-width:16;stroke-miterlimit:10;stroke-dasharray:17.27,17.27;}
	.st4{fill:none;stroke:#989897;stroke-width:16;stroke-miterlimit:10;stroke-dasharray:13.3,13.3;}
</style>
<path class="st0" d="M120.5,56.3h228.4c37.6,0,68.1,30.5,68.1,68.1v228.4c0,37.6-30.5,68.1-68.1,68.1H120.5
	c-37.6,0-68.1-30.5-68.1-68.1V124.5C52.3,86.8,82.8,56.3,120.5,56.3z"/>
<line class="st0" x1="162.8" y1="153.9" x2="417" y2="153.9"/>
<line class="st0" x1="52.3" y1="153.9" x2="128.5" y2="153.9"/>
<line class="st0" x1="340.8" y1="238.7" x2="417" y2="238.7"/>
<line class="st0" x1="52.3" y1="238.7" x2="297.9" y2="238.7"/>
<line class="st0" x1="254.2" y1="324.4" x2="417" y2="324.4"/>
<line class="st0" x1="52.3" y1="324.4" x2="215.8" y2="324.4"/>
<line class="st0" x1="145.6" y1="171.9" x2="145.6" y2="421"/>
<line class="st0" x1="145.6" y1="56.3" x2="145.6" y2="136.5"/>
<line class="st0" x1="234.7" y1="341.7" x2="234.7" y2="421"/>
<line class="st0" x1="234.7" y1="61.7" x2="234.7" y2="305"/>
<line class="st0" x1="319.4" y1="257.5" x2="319.4" y2="421"/>
<line class="st0" x1="319.4" y1="56.3" x2="319.4" y2="218.7"/>
<circle class="st0" cx="145.6" cy="153.9" r="19.3"/>
<circle class="st0" cx="234.7" cy="324.4" r="20.4"/>
<circle class="st0" cx="319.4" cy="238.7" r="20.5"/>
<line class="st0" x1="52.3" y1="238.7" x2="57.7" y2="233.8"/>
<line class="st1" x1="67.7" y1="224.7" x2="122.8" y2="174.7"/>
<line class="st0" x1="127.9" y1="170.1" x2="133.2" y2="165.2"/>
<line class="st0" x1="223.3" y1="302.8" x2="219.6" y2="295.6"/>
<line class="st2" x1="212.6" y1="282.2" x2="160" y2="181.4"/>
<line class="st0" x1="156.5" y1="174.7" x2="152.7" y2="167.5"/>
<line class="st0" x1="309.6" y1="249.2" x2="304.8" y2="254.1"/>
<line class="st3" x1="294.9" y1="264" x2="260.6" y2="298.4"/>
<line class="st0" x1="255.7" y1="303.3" x2="250.9" y2="308.1"/>
<line class="st0" x1="417" y1="324.4" x2="412.5" y2="320.5"/>
<line class="st4" x1="404.4" y1="313.4" x2="344.2" y2="260.4"/>
<line class="st0" x1="340.2" y1="256.9" x2="335.6" y2="252.9"/>
</svg>
